PathFileType	4	(X/Y/Z)	Kaydara	
DataRate	CameraRate	NumFrames	NumMarkers	Units	OrigDataRate	OrigDataStartFrame	OrigNumFrames	
240.00	240.00	4	72	mm	240.00	135	359	
Frame#	Time	Hips			RightUpLeg			RightLeg			RightFoot			RightFoot_End			LeftUpLeg			LeftLeg			LeftFoot			LeftFoot_End			Spine			Spine1			Spine2			Spine3			Neck			Head			Head_End			RightShoulder			RightArm			RightForeArm			RightHand			RightHandThumb1			RightHandThumb2			RightHandThumb3			RightHandThumb3_End			RightInHandIndex			RightHandIndex1			RightHandIndex2			RightHandIndex3			RightHandIndex3_End			RightInHandMiddle			RightHandMiddle1			RightHandMiddle2			RightHandMiddle3			RightHandMiddle3_End			RightInHandRing			RightHandRing1			RightHandRing2			RightHandRing3			RightHandRing3_End			RightInHandPinky			RightHandPinky1			RightHandPinky2			RightHandPinky3			RightHandPinky3_End			LeftShoulder			LeftArm			LeftForeArm			LeftHand			LeftHandThumb1			LeftHandThumb2			LeftHandThumb3			LeftHandThumb3_End			LeftInHandIndex			LeftHandIndex1			LeftHandIndex2			LeftHandIndex3			LeftHandIndex3_End			LeftInHandMiddle			LeftHandMiddle1			LeftHandMiddle2			LeftHandMiddle3			LeftHandMiddle3_End			LeftInHandRing			LeftHandRing1			LeftHandRing2			LeftHandRing3			LeftHandRing3_End			LeftInHandPinky			LeftHandPinky1			LeftHandPinky2			LeftHandPinky3			LeftHandPinky3_End			
		X1	Y1	Z1	X2	Y2	Z2	X3	Y3	Z3	X4	Y4	Z4	X5	Y5	Z5	X6	Y6	Z6	X7	Y7	Z7	X8	Y8	Z8	X9	Y9	Z9	X10	Y10	Z10	X11	Y11	Z11	X12	Y12	Z12	X13	Y13	Z13	X14	Y14	Z14	X15	Y15	Z15	X16	Y16	Z16	X17	Y17	Z17	X18	Y18	Z18	X19	Y19	Z19	X20	Y20	Z20	X21	Y21	Z21	X22	Y22	Z22	X23	Y23	Z23	X24	Y24	Z24	X25	Y25	Z25	X26	Y26	Z26	X27	Y27	Z27	X28	Y28	Z28	X29	Y29	Z29	X30	Y30	Z30	X31	Y31	Z31	X32	Y32	Z32	X33	Y33	Z33	X34	Y34	Z34	X35	Y35	Z35	X36	Y36	Z36	X37	Y37	Z37	X38	Y38	Z38	X39	Y39	Z39	X40	Y40	Z40	X41	Y41	Z41	X42	Y42	Z42	X43	Y43	Z43	X44	Y44	Z44	X45	Y45	Z45	X46	Y46	Z46	X47	Y47	Z47	X48	Y48	Z48	X49	Y49	Z49	X50	Y50	Z50	X51	Y51	Z51	X52	Y52	Z52	X53	Y53	Z53	X54	Y54	Z54	X55	Y55	Z55	X56	Y56	Z56	X57	Y57	Z57	X58	Y58	Z58	X59	Y59	Z59	X60	Y60	Z60	X61	Y61	Z61	X62	Y62	Z62	X63	Y63	Z63	X64	Y64	Z64	X65	Y65	Z65	X66	Y66	Z66	X67	Y67	Z67	X68	Y68	Z68	X69	Y69	Z69	X70	Y70	Z70	X71	Y71	Z71	X72	Y72	Z72	

135	0.558	198.9409999999998	914.58397	126.699	255.66215999999986	898.54434	54.25255	161.3486899999998	501.53818	-40.51862	142.69682999999986	110.03012000000001	-115.43317	-8.787470000000212	33.28704	-27.674299999999995	156.71046000000024	904.5428599999999	210.47412000000003	67.3111799999997	502.51526999999993	286.57869	-5.775039999999535	78.50954000000002	378.3403599999999	-127.39777999999933	-3.80929	255.98787999999996	131.41474000000017	1031.5948599999997	79.39048000000001	69.35815000000002	1087.7643699999999	30.001970000000004	2.2694200000005367	1139.3694	-25.49511	-64.68737000000056	1177.6323199999997	-84.62736999999998	-137.49293000000034	1218.9476099999997	-146.0466	-205.63825999999972	1256.74463	-199.33834999999996	-347.35941	1329.6268400000001	-205.93753	-91.66744999999992	1209.95561	-148.08275	-22.269360000000233	1215.0166	-256.1308599999999	99.52657999999974	986.1195000000001	-308.28461	131.79169999999976	935.43381	-560.4571	145.58148999999958	966.66426	-581.2277999999999	136.48847999999998	984.4309000000001	-612.1780999999999	129.6464300000007	992.6942099999999	-635.40318	123.50650000000041	996.0674999999999	-656.1946600000001	147.43430999999964	955.2733799999999	-589.0608600000002	158.99171000000024	968.2956500000001	-639.2510499999997	154.1363999999994	974.8217800000001	-674.5188799999999	143.55641000000014	979.8239799999999	-691.37572	129.69892999999956	984.60167	-701.9088300000001	145.0327500000003	943.5227300000001	-591.87575	155.01017000000047	949.86906	-642.3522400000003	149.34158000000025	955.3944800000002	-681.0455	136.39939999999933	960.66364	-701.48296	121.1503700000003	965.5190100000001	-713.0568399999999	143.17105999999967	934.89007	-592.60116	150.87689000000046	933.0881999999999	-638.51894	145.54030000000057	936.2630199999999	-672.3780500000003	132.84631999999965	940.47398	-692.16271	118.40875000000051	944.62624	-703.07877	139.66694999999982	924.55154	-591.8456500000002	145.01414000000022	916.53438	-633.5701800000002	140.0886899999996	916.5240900000001	-660.69186	130.51421000000028	918.3608299999999	-675.1270199999999	117.54333000000042	921.3284300000003	-684.7992499999999	-135.1302599999999	1200.5371	-102.01787000000002	-191.30267000000003	1127.9002900000003	-13.776529999999998	-25.647030000000086	1018.83503	-188.12265000000002	80.32537000000048	978.8833099999999	-421.09307	110.70701000000008	1004.1111699999999	-427.2113299999999	147.0723799999996	1001.55564	-432.43495999999993	171.3093400000007	996.42962	-438.82195	190.58399000000009	989.2935700000002	-446.49843000000004	109.14563999999973	996.53715	-438.81902	151.10167999999976	1001.97885	-470.94823	182.69764000000032	994.51041	-486.94516	201.2880099999993	985.99285	-488.66579	215.96510000000035	976.32944	-484.54218000000003	104.84046000000035	986.7112300000001	-444.87588	143.43376999999964	986.7072700000001	-479.49172	177.2100900000005	977.2295	-497.63458	199.30221999999958	966.31599	-500.04012	215.1980399999993	955.43262	-495.6883900000001	100.70508000000063	979.72385	-448.42413	131.63494999999966	973.92829	-482.7872499999999	160.29728999999952	964.30882	-499.24731	181.19416	953.0603800000001	-501.91105	195.9446399999997	942.4853499999999	-497.98204999999996	94.9054500000002	970.77635	-450.88203999999996	119.63464999999997	960.26007	-484.22388	141.23913999999968	950.46217	-498.26286000000005	155.82968999999957	941.2440900000001	-500.62101999999993	168.52114999999958	931.2931099999998	-497.37952999999993
136	0.563	198.9409999999998	914.58397	126.699	255.71964000000025	898.6060700000002	54.283939999999994	161.24944999999934	501.58723	-40.2778	142.56764999999996	110.06837	-115.12840999999999	-8.91831000000002	33.334909999999994	-27.364	156.64771999999994	904.47452	210.43424	67.2501599999996	502.44521	286.53178	-5.82567999999992	78.46836	378.43501000000003	-127.45612999999958	-3.83306	256.07848	131.4356799999996	1031.6215600000003	79.42665999999998	69.38511000000017	1087.79901	30.03962	2.300640000000385	1139.41431	-25.453049999999998	-64.66031999999996	1177.6758199999997	-84.58150000000002	-137.47010000000046	1218.99037	-145.99623	-205.61892999999964	1256.78761	-199.28335	-347.33763	1329.6725499999998	-205.90483	-91.64620000000014	1209.9916399999995	-148.03822000000002	-22.126429999999345	1215.2698500000001	-255.99768999999998	100.17043000000012	986.74475	-308.60855000000004	132.40072999999938	935.82884	-560.73912	146.07139000000006	967.28066	-581.25296	136.90922000000046	985.2668800000001	-612.0556799999999	130.03431999999975	993.6951100000001	-635.2117	123.88011000000006	997.21615	-655.9744399999998	147.96640000000025	955.9616100000001	-589.17952	159.4707900000003	969.4395099999999	-639.2614899999999	154.58818999999949	976.23712	-674.4742200000001	143.98813999999948	981.3379499999999	-691.28885	130.11196000000018	986.1499700000002	-701.7816499999999	145.60879999999997	944.2255699999998	-592.09083	155.55828999999994	951.0241999999998	-642.5139000000001	149.86590999999953	956.84626	-681.1601400000001	136.90239999999994	962.2346100000001	-701.55296	121.63431000000037	967.12762	-713.0857799999999	143.7795100000003	935.5922299999999	-592.88711	151.48841999999968	934.1969799999999	-638.8185300000001	146.13725000000068	937.63002	-672.65013	133.42597000000023	941.95578	-692.3988800000001	118.9720299999999	946.14335	-703.27972	140.3143399999999	925.23473	-592.21647	145.68832999999995	917.5810899999999	-634.00578	140.76080000000002	917.77531	-661.1263900000001	131.17833999999948	919.6946699999999	-675.5454899999997	118.19562999999926	922.6929299999999	-685.19236	-135.1028499999993	1200.58732	-101.96462999999999	-191.35332000000017	1127.8590199999999	-13.84845	-25.522609999999986	1019.2601199999999	-188.31920000000002	80.67137000000002	980.75981	-421.43306999999993	110.96508999999969	1006.1380899999999	-427.36222000000004	147.33932000000004	1003.7481500000001	-432.60255	171.5942100000002	998.7541600000001	-439.02599	190.89385999999922	991.7424700000001	-446.75407999999993	109.43051000000014	998.6450100000001	-439.02588	151.36837000000014	1004.47112	-471.11139000000003	182.99067999999988	997.23173	-487.16145	201.61069000000043	988.7920199999999	-488.9441499999999	216.32123000000047	979.1494900000001	-484.89149	105.15980000000036	988.84935	-445.15572	143.75400999999965	989.2367200000001	-479.76839	177.5637399999996	980.01158	-497.97911	199.6938600000003	969.1932900000002	-500.4642600000001	215.62737000000016	958.33339	-496.19246999999996	101.04892000000018	981.8741200000001	-448.75595	131.9998999999998	976.4414999999999	-483.15932999999995	160.69614	967.0443700000001	-499.68864	181.63216999999986	955.88889	-502.43454	196.41929000000073	945.3364799999999	-498.58323999999993	95.28057999999965	972.92494	-451.28051	120.04735999999957	962.7425700000001	-484.69802	141.68633000000045	953.1244500000001	-498.80804	156.30898999999954	943.9750299999998	-501.23367999999994	169.0349500000002	934.0445600000002	-498.06537000000003
137	0.567	198.9409999999998	914.58397	126.699	255.7841500000004	898.6565699999999	54.32344	161.23935000000074	501.64003	-40.17337	142.52098999999998	110.11039	-114.95841	-8.9677700000002	33.39266	-27.185079999999996	156.57477999999992	904.41748	210.39045	67.17804999999953	502.3862799999999	286.47901	-5.891059999999925	78.43784	378.51854999999995	-127.52887999999984	-3.8432399999999998	256.15567	131.4703899999995	1031.64845	79.4437	69.42983999999979	1087.83405	30.05334	2.3541000000004715	1139.45983	-25.440140000000003	-64.60631000000012	1177.7208199999998	-84.56955	-137.4153699999997	1219.0355600000003	-145.985	-205.56341000000066	1256.83386	-199.27238000000003	-347.2808500000001	1329.7273600000003	-205.82638	-91.5929500000002	1210.02983	-148.02941999999996	-21.946640000000116	1215.5090299999997	-255.89727	100.87960999999996	987.38031	-308.99289000000005	133.0990899999997	936.24919	-561.0812900000001	146.65661999999975	967.9147800000001	-581.3397499999999	137.4300400000002	986.11627	-611.9964500000001	130.52505999999994	994.7065599999999	-635.0838600000001	124.35840999999982	998.3731099999998	-655.8177100000001	148.59243999999944	956.66706	-589.35745	160.04872000000069	970.5906099999997	-639.32841	155.14201000000048	977.6549699999999	-674.48525	144.52382000000034	982.8533299999999	-691.25851	130.63050999999996	987.7	-701.7126100000003	146.27714000000014	944.94652	-592.36361	156.20256999999947	952.1882300000001	-642.7296999999999	150.48963000000003	958.3019	-681.3278399999999	137.50700999999935	963.80818	-701.67695	122.22150000000056	968.7392399999999	-713.1704399999999	144.47896000000037	936.31337	-593.2297000000001	152.1932799999995	935.3171400000001	-639.1706000000001	146.83010000000013	939.0042099999998	-672.9735600000001	134.10352000000057	943.4436499999999	-692.68719	119.63469999999961	947.6669600000001	-703.5343999999999	141.05108999999993	925.9383800000002	-592.6429300000001	146.45299999999952	918.64213	-634.4925200000001	141.5250699999997	919.0377800000001	-661.61086	131.93588999999974	921.03911	-676.0143500000001	118.94256000000041	924.0684800000001	-685.63718	-135.04700000000048	1200.6396100000002	-101.95048999999999	-191.40446000000065	1127.8053	-13.990379999999998	-25.38623000000007	1019.6352499999999	-188.54919	81.03725000000031	982.5247299999999	-421.78375000000005	111.24445000000014	1008.04816	-427.52836999999994	147.62705000000005	1005.82012	-432.7819	171.89937999999984	1000.9551099999999	-439.23834999999997	191.2235099999998	994.06485	-447.01433999999995	109.73642000000018	1000.63337	-439.2454	151.65662000000066	1006.8319099999999	-471.28417999999994	183.30477000000064	999.8155300000001	-487.38229	201.95366999999987	991.45249	-489.2233	216.69678999999996	981.8316299999999	-485.23811	105.4997200000007	990.86721	-445.4455	144.0950899999998	991.63378	-480.05055000000004	177.93760999999995	982.65463	-498.32322	200.10479000000032	971.9301000000002	-500.8833000000001	216.07502999999997	961.09452	-496.68754999999993	101.41300000000047	983.90385	-449.0958800000001	132.38508000000002	978.8229800000001	-483.534	161.11459000000013	969.6423500000001	-500.12704999999994	182.0888700000005	958.57843	-502.9504099999999	196.91170000000056	948.04941	-499.17307000000005	95.67551000000003	974.95326	-451.68489	120.47958999999992	965.0945999999999	-485.17172000000005	142.1524300000001	955.65157	-499.3478600000001	156.8065000000006	946.56977	-501.83729000000005	169.5661	936.6605	-498.73867999999993
138	0.571	198.9409999999998	914.58397	126.699	255.84536000000026	898.7043399999999	54.361050000000006	161.2483000000002	501.69377	-40.10851000000001	142.49334	110.15703	-114.84724	-8.99877000000015	33.45053	-27.06989	156.5052599999999	904.36327	210.34862	67.10782999999992	502.33371000000005	286.44503	-5.958469999999579	78.41286	378.61381	-127.60523000000012	-3.8478	256.24608	131.5047400000003	1031.6750400000003	79.46053999999998	69.47800999999981	1087.8777299999997	30.072269999999996	2.4159499999996115	1139.5242600000001	-25.41843	-64.53785000000062	1177.8009999999997	-84.54514	-137.34020000000055	1219.13222	-145.95746	-205.48257000000012	1256.9448399999999	-199.24193	-347.2054699999999	1329.8358900000003	-205.70444999999998	-91.51721999999972	1210.1285700000003	-147.99864	-21.752470000000358	1215.80268	-255.77984	101.47501000000011	987.97618	-309.2421600000001	133.7116100000003	937.10772	-561.3815	147.15538000000015	968.98161	-581.3875499999999	137.86443000000054	987.39174	-611.89989	130.9295000000002	996.13952	-634.91908	124.75061000000005	999.9477799999999	-655.62372	149.1323000000002	957.8048100000001	-589.4939199999999	160.54047999999966	972.16498	-639.35219	155.60991999999987	979.4896800000001	-674.45236	144.97378000000026	984.7822300000001	-691.18475	131.0635200000006	989.6611999999999	-701.60121	146.85959000000003	946.1001299999999	-592.5929599999998	156.76114999999936	953.7762999999999	-642.8993700000001	151.0279700000001	960.17469	-681.44834	138.0264699999998	965.7948899999999	-701.7541999999999	122.72376000000077	970.7614399999999	-713.20946	145.09272000000055	937.46765	-593.5275200000001	152.8128000000006	936.8631599999999	-639.4742800000001	147.43793000000005	940.79833	-673.2473900000001	134.69630999999936	945.34763	-692.92624	120.21280999999999	949.60429	-703.7407699999999	141.70241000000078	927.0760000000001	-593.0231800000001	147.13270999999986	920.1309599999998	-634.92881	142.20468000000074	920.7234900000001	-662.04356	132.60901000000013	922.80408	-676.4314800000001	119.60526000000027	925.86249	-686.0310199999999	-134.97700000000077	1200.7228799999998	-101.92827	-191.44713000000047	1127.78621	-14.125380000000002	-25.246509999999944	1020.02166	-188.76141	81.39763999999923	984.25755	-422.1055	111.51771000000008	1009.92297	-427.67233	147.9079699999993	1007.8554600000001	-432.9384	172.19711000000007	1003.11794	-439.4263700000001	191.54506000000038	996.3473800000003	-447.24813	110.0356099999999	1002.58379	-439.44016999999997	151.9359600000007	1009.1456700000001	-471.43252	183.60869999999977	1002.34834	-487.57617000000005	202.2861700000003	994.0619400000002	-489.47328	217.0619000000006	984.4643599999999	-485.55323	105.83262999999988	992.8460500000001	-445.70755999999994	144.42685999999958	993.9824100000001	-480.30371	178.30077999999958	985.2448100000001	-498.63520000000005	200.5046199999997	974.61397	-501.26733	216.51159000000007	963.8044499999999	-497.14501	101.76990999999998	985.89403	-449.4060200000001	132.76087999999982	981.15591	-483.876	161.52242000000024	972.1878099999999	-500.52967	182.53454000000056	961.2153200000001	-503.42749000000003	197.39309000000048	950.7113	-499.72153	96.0631800000001	976.9418900000001	-452.05692000000005	120.90247	967.3985	-485.60892000000007	142.60817000000043	958.12728	-499.84806	157.29331999999977	949.1129400000001	-502.39878	170.08656999999948	939.2262799999999	-499.3674300000001
